HIERARCHY
ROOT Hips
{
  OFFSET 0 89.5177 0.535
  CHANNELS 6 Xposition Yposition Zposition Zrotation Xrotation Yrotation
  JOINT Spine
  {
    OFFSET 12.0259 -0.162855 1.69034e-005
    CHANNELS 3 Zrotation Xrotation Yrotation
    JOINT Spine1
    {
      OFFSET 15.3169 -0.0121922 0
      CHANNELS 3 Zrotation Xrotation Yrotation
      JOINT Spine2
      {
        OFFSET 15.3176 -0.0121908 0
        CHANNELS 3 Zrotation Xrotation Yrotation
        JOINT Neck
        {
          OFFSET 19.9142 1.56338 0
          CHANNELS 3 Zrotation Xrotation Yrotation
          JOINT Head
          {
            OFFSET 6.92651 0 0
            CHANNELS 3 Zrotation Xrotation Yrotation
            End Site
            {
              OFFSET 20.7666 0 0
            }
          }
          JOINT LeftShoulder
          {
            OFFSET -6.20654 0.708824 7.28219
            CHANNELS 3 Zrotation Xrotation Yrotation
            JOINT LeftArm
            {
              OFFSET 14.108 0 -1.52588e-005
              CHANNELS 3 Zrotation Xrotation Yrotation
              JOINT LeftForeArm
              {
                OFFSET 28.5802 0 0
                CHANNELS 3 Zrotation Xrotation Yrotation
                JOINT LeftHand
                {
                  OFFSET 27.092 0 0
                  CHANNELS 3 Zrotation Xrotation Yrotation
                  End Site
                  {
                    OFFSET 9.55928 -0.186424 0.145352
                  }
                }
              }
            }
          }
          JOINT RightShoulder
          {
            OFFSET -6.20654 0.708866 -7.28218
            CHANNELS 3 Zrotation Xrotation Yrotation
            JOINT RightArm
            {
              OFFSET 14.108 0 1.52588e-005
              CHANNELS 3 Zrotation Xrotation Yrotation
              JOINT RightForeArm
              {
                OFFSET 28.5802 0 0
                CHANNELS 3 Zrotation Xrotation Yrotation
                JOINT RightHand
                {
                  OFFSET 27.092 0 0
                  CHANNELS 3 Zrotation Xrotation Yrotation
                  End Site
                  {
                    OFFSET 9.55929 -0.186417 -0.145354
                  }
                }
              }
            }
          }
        }
      }
    }
  }
  JOINT LeftUpLeg
  {
    OFFSET 0.005 -0.535 8.837
    CHANNELS 3 Zrotation Xrotation Yrotation
    JOINT LeftLeg
    {
      OFFSET 39.9035 0 0
      CHANNELS 3 Zrotation Xrotation Yrotation
      JOINT LeftFoot
      {
        OFFSET 39.6689 0 0
        CHANNELS 3 Zrotation Xrotation Yrotation
        JOINT LeftToe
        {
          OFFSET 10.1624 13.6296 0
          CHANNELS 3 Zrotation Xrotation Yrotation
          End Site
          {
            OFFSET 8.38147 0 0
          }
        }
      }
    }
  }
  JOINT RightUpLeg
  {
    OFFSET 0.005 -0.535 -8.837
    CHANNELS 3 Zrotation Xrotation Yrotation
    JOINT RightLeg
    {
      OFFSET 39.9035 0 0
      CHANNELS 3 Zrotation Xrotation Yrotation
      JOINT RightFoot
      {
        OFFSET 39.6689 0 0
        CHANNELS 3 Zrotation Xrotation Yrotation
        JOINT RightToe
        {
          OFFSET 10.1624 13.6296 0
          CHANNELS 3 Zrotation Xrotation Yrotation
          End Site
          {
            OFFSET 8.38147 0 0
          }
        }
      }
    }
  }
}
MOTION
Frames:	18
Frame Time:	0.0333333
225.307 90.3485 52.018 -102.32 71.6008 -167.09 0.513563 -1.09155 0.200469 1.03123 -2.18077 0.410993 1.03123 -2.18077 0.410984 -8.30987e-012 -9.0191e-006 -5.27751e-005 -1.55082 45.9802 -10.3046 179.863 -27.8389 -90.2922 -102.756 -50.0544 -53.9739 -7.38616 -9.54166e-015 -3.18055e-015 -37.4939 -34.5576 -36.0996 -178.597 19.4557 85.7943 -76.9397 43.7916 -0.693229 -70.3777 -7.95139e-016 7.15625e-015 -83.469 57.5987 89.48 -33.717 13.0432 -164.132 -62.8668 -3.18055e-015 -0 -6.04936 13.5388 -20.4083 90 4.77083e-015 -3.18055e-015 -14.0822 -8.59318 159.647 -25.0634 -1.59028e-015 -5.96354e-016 3.61572 -11.6021 18.4473 90 0 1.59028e-015 
227.738 92.9142 53.6381 -105.115 74.5177 -164.47 0.601322 -1.19042 0.38777 1.21108 -2.3762 0.788435 1.21108 -2.3762 0.788426 -8.30589e-012 -9.0191e-006 -5.27751e-005 -4.20054 47.4585 -8.25926 -179.978 -27.4761 -89.9528 -103.25 -50.3232 -57.1118 -4.61017 3.18055e-015 -3.18055e-015 -36.1243 -34.1111 -34.5827 -178.307 19.1043 84.8408 -73.1309 42.435 -3.68362 -75.4771 6.36111e-015 1.19271e-014 -83.0629 57.7259 88.9838 -33.1358 15.3054 -164.249 -55.3119 -3.18055e-015 3.18055e-015 -9.07674 14.687 -22.3187 90 -3.18055e-015 -3.18055e-015 -13.3782 -10.3685 159.171 -18.8823 -1.19271e-015 3.67752e-015 -10.0086 -11.8753 18.4835 90 -3.97569e-016 2.38542e-015 
230.056 94.7085 55.1862 -108.817 77.5409 -160.954 0.739447 -1.17795 0.482443 1.48926 -2.34906 0.980525 1.48926 -2.34906 0.980516 -8.30907e-012 -9.0191e-006 -5.27751e-005 -6.63495 48.0172 -5.57263 -179.91 -27.1505 -89.8025 -105.136 -50.8548 -61.0735 -1.94167 6.36111e-015 3.18055e-015 -35.6855 -33.5269 -33.9394 -177.935 18.6959 83.5812 -68.4938 39.9112 -6.12006 -79.6836 6.36111e-015 -3.18055e-015 -82.2654 57.8726 88.0219 -32.1145 15.9189 -164.507 -47.6708 0 -1.59028e-015 -9.62952 13.4349 -20.4324 90 -3.18055e-015 -0 -12.7926 -12.7188 158.86 -12.7741 7.95139e-016 2.48481e-016 -21.0747 -11.8624 18.1116 90 9.93923e-017 3.97569e-016 
232.121 95.3721 56.7095 -118.526 80.9207 -151.661 0.748662 -1.04233 0.471993 1.50626 -2.07788 0.957967 1.50626 -2.07788 0.957958 -8.30748e-012 -9.0191e-006 -5.27751e-005 -8.47836 48.6386 -3.02576 -179.828 -27.4658 -89.6273 -106.134 -50.3402 -64.0011 -0.224215 4.77083e-015 -3.18055e-015 -35.8201 -33.6754 -34.1501 -177.598 18.5144 82.4752 -63.8173 37.1076 -8.96447 -82.0656 -3.97569e-015 1.59028e-015 -81.1053 58.1135 86.6249 -31.3966 15.5345 -164.041 -40.4811 -3.18055e-015 -1.59028e-015 -9.04282 10.6624 -16.1766 90 1.59028e-015 3.18055e-015 -12.8322 -12.9546 159.031 -9.59606 1.59028e-015 5.06901e-015 -26.4001 -11.9826 18.1304 90 3.97569e-016 -7.95139e-016 
234.187 94.8449 58.345 -136.335 83.9777 -134.496 0.759089 -0.942653 0.453307 1.52592 -1.87871 0.919413 1.52592 -1.87872 0.919404 -8.30907e-012 -9.0191e-006 -5.27751e-005 -10.1005 49.9683 -1.07701 -179.685 -28.3046 -89.3348 -106.941 -49.7219 -66.5934 -4.03376e-006 1.59028e-015 3.18055e-015 -36.2495 -33.891 -34.6659 -177.411 18.3495 81.8264 -59.4008 34.1267 -11.9799 -82.8462 4.77083e-015 -3.18055e-015 -80.2208 58.7204 85.5372 -29.5899 13.4674 -163.181 -32.6496 3.18055e-015 7.95139e-016 -10.5188 9.4378 -14.3435 90 2.38542e-015 -6.36111e-015 -13.2527 -12.4348 159.085 -9.66334 0 -3.97569e-015 -26.8471 -12.3875 18.7553 90 7.95139e-016 -0 
236.51 93.2548 60.1268 -163.674 85.5183 -107.56 0.687897 -0.922398 0.417241 1.38276 -1.83922 0.845854 1.38276 -1.83922 0.845845 -8.30589e-012 -9.0191e-006 -5.27751e-005 -10.0284 50.97 -0.41356 -179.372 -29.5589 -88.7261 -111.331 -50.0441 -70.5229 -0.126457 1.59028e-015 3.18055e-015 -36.457 -33.6065 -34.7552 -177.293 18.0533 81.3266 -54.814 30.4405 -14.4806 -82.734 2.38542e-015 -0 -80.4315 58.924 85.7775 -25.853 8.33311 -163.207 -23.381 -1.59028e-015 2.98177e-015 -15.7285 10.8623 -16.5529 90 0 -0 -14.0173 -12.3009 158.251 -11.7874 -3.18056e-015 7.95139e-016 -23.4093 -12.3226 18.7729 90 -1.59028e-015 -0 
239.01 90.8568 62.1717 156.603 85.9104 -68.0453 0.689004 -0.770957 0.397693 1.38353 -1.53658 0.804901 1.38353 -1.53658 0.804892 -8.31066e-012 -9.0191e-006 -5.27751e-005 -8.66976 51.3471 -0.964251 -178.822 -31.7199 -87.7611 -115.834 -51.6934 -72.5548 -3.46591 -7.95139e-016 -3.18055e-015 -36.3633 -34.2493 -34.9094 -177.272 17.7001 81.0942 -49.9264 26.2008 -16.3083 -82.4534 3.18055e-015 -1.59028e-015 -81.3478 60.0404 86.7664 -23.6266 7.05529 -162.711 -20.8149 -3.18055e-015 -3.08116e-015 -7.02709 9.67778 -15.0445 90 9.93923e-017 -0 -14.574 -12.9311 156.67 -15.0218 3.18056e-015 -2.38542e-015 -15.7917 -12.315 19.0221 90 -7.95139e-016 3.18055e-015 
241.638 87.9449 64.1715 120.661 84.9608 -31.5638 0.806994 -0.526552 0.259004 1.61646 -1.04893 0.525592 1.61646 -1.04893 0.525583 -8.30828e-012 -9.0191e-006 -5.27751e-005 -7.29864 51.1908 -2.10685 -178.262 -33.6629 -86.8657 -98.4789 -53.3027 -57.1614 -16.6576 0 3.18055e-015 -40.4528 -43.0156 -42.2691 -177.265 17.588 81.017 -44.9921 21.13 -17.6387 -82.4242 -2.38542e-015 -0 -83.7373 60.3351 89.5197 -24.2976 10.1552 -162.113 -27.1592 -1.59028e-015 1.98785e-015 6.55655 9.85303 -15.6816 90 -5.8393e-016 -0 -16.3303 -14.3098 153.591 -19.9556 0 7.95139e-016 -6.85064 -11.862 18.5489 90 1.59028e-015 3.18055e-015 
244.161 85.3331 65.6745 106.565 84.5659 -16.0395 1.00098 -0.47045 -0.0852851 2.00135 -0.941845 -0.162188 2.00135 -0.941845 -0.162198 -8.30669e-012 -9.0191e-006 -5.27751e-005 -7.23742 50.4771 -2.2074 -177.877 -33.5892 -86.1669 -73.7187 -54.2247 -36.9854 -38.2815 3.18055e-015 3.18055e-015 -49.489 -47.4149 -53.6806 -177.062 17.3788 80.251 -39.1036 15.8455 -19.3271 -83.2288 -2.28602e-015 -7.95139e-016 -85.0883 61.9498 90.8695 -26.965 12.9524 -162.197 -37.4887 6.36111e-015 -2.38542e-015 17.9666 11.9913 -19.4786 90 -1.30452e-015 -3.97569e-016 -19.9108 -16.2567 149.419 -25.9165 0 -3.18056e-015 -0.904798 -9.26576 14.4474 90 0 -0 
246.498 83.8482 66.9346 99.3402 85.2341 -7.11966 1.33507 -0.503621 -0.564408 2.66527 -1.01976 -1.11684 2.66527 -1.01976 -1.11685 -8.30907e-012 -9.0191e-006 -5.27751e-005 -7.79214 48.3601 -1.33698 -177.909 -31.3492 -85.9852 -45.6623 -54.0773 -13.1799 -62.7229 -1.59028e-015 -6.36111e-015 -58.6784 -51.5969 -65.4991 -176.753 17.1496 79.1105 -32.4192 11.7451 -23.6976 -83.3137 -9.67833e-015 7.95139e-016 -85.9843 64.2845 91.5418 -28.9401 13.0481 -164.341 -45.4605 6.36111e-015 5.56597e-015 21.8793 11.9858 -19.473 90 -4.01297e-015 1.98785e-016 -24.07 -17.356 145.477 -32.3549 3.18056e-015 -4.77083e-015 2.55249 -3.70951 6.98793 90 2.38542e-015 6.36111e-015 
248.377 83.3823 68.2353 86.3351 84.0778 6.14074 1.58933 -0.306473 -0.654781 3.17512 -0.630492 -1.30069 3.17512 -0.630492 -1.3007 -8.30589e-012 -9.0191e-006 -5.27751e-005 -5.44438 44.953 -1.4061 -177.429 -28.1825 -84.569 -18.8819 -45.8662 10.5445 -83.553 1.78906e-015 9.54166e-015 -55.9911 -54.304 -62.5663 -176.538 16.3825 77.8928 -27.5478 6.83935 -28.2619 -80.6407 -8.64713e-015 1.98785e-016 -88.7877 65.7531 94.4047 -27.6389 13.9237 -165.665 -48.1962 1.59028e-015 3.97569e-015 24.344 10.6782 -17.3086 90 -9.93923e-016 -3.97569e-016 -25.0323 -16.1296 145.52 -35.9848 9.54167e-015 -7.95139e-015 3.50924 3.16723 -2.27297 90 1.59028e-015 -3.18055e-015 
249.809 83.7156 69.4576 83.3742 82.9835 9.12573 1.72743 -0.420994 -0.661606 3.45003 -0.861237 -1.31013 3.45003 -0.861238 -1.31014 -8.3043e-012 -9.0191e-006 -5.27751e-005 -3.05519 39.2358 -0.804805 -175.364 -26.8084 -79.8067 -7.82643 -29.4706 20.4941 -95.6484 6.26172e-015 3.18055e-015 -52.8766 -50.6018 -58.3158 -176.136 16.3281 76.4897 -27.1399 3.1185 -32.3798 -74.8921 -1.03368e-014 1.59028e-015 -86.2553 67.3552 91.357 -25.5966 13.7134 -167.523 -48.2478 0 7.95139e-016 25.1205 8.8231 -14.255 90 4.5969e-016 -0 -24.6721 -15.5899 146.574 -35.8106 -3.18056e-015 -6.36111e-015 2.77499 6.48011 -7.08204 90 -6.36111e-015 6.36111e-015 
250.755 84.5797 70.576 85.3572 82.2454 6.90446 1.68388 -0.536744 -0.696453 3.36134 -1.09321 -1.37678 3.36134 -1.09321 -1.37678 -8.30748e-012 -9.0191e-006 -5.27751e-005 -1.50449 28.9736 1.75274 -173.193 -27.1989 -75.3638 -9.12932 -12.8266 26.3013 -95.35 -5.96354e-015 1.59028e-015 -53.8254 -55.5808 -60.1904 -175.554 16.5464 74.7289 -27.273 -0.882592 -36.237 -68.9952 2.18663e-015 -3.97569e-015 -83.8168 66.7679 88.7761 -23.4029 13.9376 -168.7 -46.0222 1.59028e-015 -7.95139e-016 25.0464 7.76505 -12.5274 90 7.76503e-016 -0 -24.2571 -16.8037 147.885 -33.7167 -6.36111e-015 -1.59028e-015 1.99778 5.77419 -6.43166 90 6.36111e-015 3.18055e-015 
251.349 85.7021 71.6992 88.3975 81.002 3.35232 1.60188 -0.625966 -0.660472 3.19674 -1.26963 -1.30316 3.19674 -1.26963 -1.30316 -8.30589e-012 -9.0191e-006 -5.27751e-005 1.15654 15.5294 4.77168 -172.148 -26.0828 -72.5847 -11.118 -2.36914 34.4137 -85.8613 1.2921e-015 -7.95139e-016 -36.9291 -61.8175 -41.9148 -175.067 16.8057 73.3793 -28.0059 -4.52182 -39.9464 -62.9908 -3.18055e-015 -0 -84.0504 66.5446 89.0563 -20.8792 15.5551 -168.816 -42.2507 3.18055e-015 2.78299e-015 24.6866 7.60698 -12.2819 90 4.72114e-016 -1.98785e-016 -24.0429 -18.7578 149.717 -31.2088 -9.54167e-015 6.36111e-015 0.526646 4.90578 -5.56868 90 1.59028e-015 9.54166e-015 
251.787 86.7663 72.8109 90.0997 79.7048 1.09951 1.57649 -0.951514 -0.65724 3.14262 -1.92021 -1.28817 3.14262 -1.92022 -1.28818 -8.30907e-012 -9.0191e-006 -5.27751e-005 4.65322 1.00259 8.16136 -171.369 -25.2705 -70.4255 -14.4587 3.08447 41.5438 -72.6765 -3.97569e-015 -1.59028e-015 -24.6597 -59.1214 -28.548 -174.769 17.2695 72.8608 -29.8183 -6.22242 -44.3582 -56.1234 -3.97569e-015 3.97569e-015 -82.3324 68.1245 86.9612 -18.2729 17.0474 -168.959 -38.3959 -3.18055e-015 -2.78299e-015 24.0055 7.36273 -11.8928 90 -1.97542e-015 5.96354e-016 -24.1049 -21.4401 151.37 -28.9977 3.18056e-015 6.36111e-015 -1.21153 4.88347 -5.89136 90 1.59028e-015 9.54166e-015 
252.024 87.4967 73.6436 93.725 78.0703 -3.24496 1.52067 -1.44392 -0.681493 3.02551 -2.90485 -1.32489 3.02551 -2.90485 -1.3249 -8.30748e-012 -9.0191e-006 -5.27751e-005 8.98347 -13.8514 13.0194 -171.493 -24.1702 -69.9328 -16.0169 5.4161 48.6791 -60.6562 1.11319e-014 -1.59028e-015 -27.0329 -54.8905 -30.5269 -174.262 17.925 71.9179 -32.2855 -6.52691 -47.8446 -49.4895 -3.97569e-015 -1.68967e-015 -78.096 69.9464 82.1674 -16.9898 18.4253 -168.619 -35.5787 1.59028e-015 1.19271e-015 23.4188 7.01253 -11.3201 90 1.09332e-015 -7.95139e-016 -24.7487 -23.4518 153.536 -27.949 -3.18056e-015 -7.95139e-015 -1.87086 4.56387 -5.82226 90 0 -6.36111e-015 
252.117 87.9583 74.2567 96.3033 75.5329 -6.50434 1.48607 -2.04405 -0.642908 2.95192 -4.1035 -1.23355 2.95192 -4.1035 -1.23356 -8.30748e-012 -9.0191e-006 -5.27751e-005 14.369 -27.1237 18.6987 -171.972 -23.09 -70.2188 -14.7818 4.53462 55.641 -50.5748 -6.36111e-015 -3.18055e-015 -32.4102 -54.1674 -36.093 -173.946 18.3678 71.3983 -35.1583 -6.36562 -50.5294 -43.6904 7.95139e-016 -3.18055e-015 -72.5964 70.3304 76.2366 -16.6069 20.3866 -167.82 -33.8814 0 -1.98785e-015 22.8561 6.67174 -10.7539 90 -4.5969e-016 -3.97569e-016 -25.4538 -23.9863 156.281 -27.8803 1.27222e-014 1.59028e-015 -1.76678 3.97557 -5.35055 90 6.36111e-015 3.18055e-015 
252.136 88.1882 74.7437 97.2245 71.7391 -7.73427 1.48868 -2.54319 -0.616827 2.95424 -5.10095 -1.16882 2.95424 -5.10095 -1.16883 -8.30907e-012 -9.0191e-006 -5.27751e-005 20.8475 -38.3364 25.4999 -172.327 -22.6343 -70.7062 -14.7363 3.18397 60.939 -42.8219 0 1.59028e-015 -35.5741 -53.779 -39.4317 -173.704 18.6372 70.9544 -36.5728 -5.5891 -52.3576 -39.5268 0 -1.19271e-015 -66.8344 70.8995 70.0499 -16.5503 23.0797 -167.063 -33.1082 7.95139e-016 -0 22.3349 5.93828 -9.55422 90 -7.14382e-016 -0 -26.7645 -23.2409 159.046 -28.8423 6.36111e-015 -0 -1.39856 3.95101 -5.641 90 -1.59028e-015 -0 
